<?xml version="1.0" encoding="utf-8"?>
<!-- Uploaded to: SVG Repo, www.svgrepo.com, Generator: SVG Repo Mixer Tools -->
<svg fill="#000000" width="800px" height="800px" viewBox="0 0 32 32" version="1.1" xmlns="http://www.w3.org/2000/svg">
	<rect x="0" y="0" width="32" height="32" rx="6" fill="#dc2626" />
<title>love-howl</title>
<path d="M30.851 10.221h-0c-0.271-8.638-10.717-11.552-15.063-4.024-2.615-7.349-14.757-4.761-14.477 4.024 0.077 2.396 1.031 4.529 2.423 6.469l6.645-2.215c-1.24-0.065-2.555-0.59-4.289-2.035 2-1.18 3.612-1.295 5.674-1.464 1.667-0.898 4.147-1.679 5.248-1.093 1.933-1.143 4.344-2.612 6.778-3.535v-0h0c-0 0-0 0-0 0 0.317 1.243 0.333 2.779 0.219 4.227l-0.656-0.875c-3.211 0.722-4.826 7.037-0.036 4.409l0.656-1.057c0.11 0.991 0.212 1.908 0 2.733-2.124 1.498-4.295 2.729-6.45 3.717-1.107 0.974-3.283 4.091-3.921 6.796 1.249 1.253 2.18 2.458 2.502 3.659 1.289-4.812 15.023-10.971 14.748-19.737zM13.893 11.646c0.811-0.403 1.694-0.621 2.685-0.557 0.285 1.984-1.61 1.757-2.685 0.557z"></path>
</svg>